<?xml version="1.0" encoding="utf-8"?>
<!-- Generator: Adobe Illustrator 17.0.0, SVG Export Plug-In . SVG Version: 6.00 Build 0)  -->
<!DOCTYPE svg PUBLIC "-//W3C//DTD SVG 1.1//EN" "http://www.w3.org/Graphics/SVG/1.1/DTD/svg11.dtd">
<svg version="1.1" id="Camada_1" xmlns="http://www.w3.org/2000/svg" xmlns:xlink="http://www.w3.org/1999/xlink" x="0px" y="0px"
	 width="623.969px" height="332.983px" viewBox="0 0 623.969 332.983" enable-background="new 0 0 623.969 332.983"
	 xml:space="preserve">
<g>
	<g>
		<g>
			<path fill="#FFFFFF" d="M107.129,270.963l6.259-3.755c4.407,8.111,9.497,12.168,15.273,12.168c2.47,0,4.79-0.576,6.96-1.728
				c2.17-1.152,3.822-2.695,4.958-4.632c1.135-1.937,1.703-3.989,1.703-6.159c0-2.471-0.835-4.891-2.504-7.261
				c-2.303-3.271-6.51-7.211-12.619-11.818c-6.143-4.64-9.965-7.994-11.467-10.064c-2.604-3.472-3.906-7.228-3.906-11.267
				c0-3.205,0.768-6.126,2.304-8.764c1.535-2.637,3.697-4.715,6.484-6.234c2.787-1.519,5.816-2.278,9.089-2.278
				c3.471,0,6.718,0.86,9.739,2.579c3.021,1.72,6.217,4.882,9.589,9.489l-6.009,4.557c-2.771-3.672-5.133-6.092-7.086-7.261
				c-1.953-1.168-4.081-1.753-6.384-1.753c-2.972,0-5.4,0.901-7.286,2.704c-1.887,1.803-2.83,4.023-2.83,6.66
				c0,1.603,0.333,3.154,1.001,4.657c0.667,1.502,1.886,3.138,3.656,4.907c0.968,0.935,4.139,3.389,9.514,7.36
				c6.376,4.707,10.749,8.897,13.12,12.569c2.37,3.673,3.555,7.36,3.555,11.066c0,5.342-2.028,9.981-6.084,13.921
				c-4.056,3.939-8.989,5.908-14.797,5.908c-4.474,0-8.53-1.193-12.168-3.58C113.555,280.569,110.2,276.571,107.129,270.963z"/>
			<path fill="#FFFFFF" d="M170.775,209.973h7.01v20.229h11.117v6.06h-11.117v48.422h-7.01v-48.422h-9.564v-6.06h9.564V209.973z"/>
			<path fill="#FFFFFF" d="M253.698,230.202v54.481h-6.91v-9.364c-2.939,3.573-6.235,6.26-9.891,8.063s-7.654,2.704-11.993,2.704
				c-7.712,0-14.296-2.796-19.754-8.388c-5.458-5.591-8.188-12.394-8.188-20.405c0-7.845,2.754-14.555,8.262-20.13
				c5.508-5.575,12.135-8.362,19.88-8.362c4.473,0,8.521,0.951,12.143,2.854c3.622,1.903,6.802,4.758,9.54,8.563v-10.016H253.698z
				 M225.681,235.561c-3.901,0-7.502,0.959-10.804,2.876c-3.302,1.918-5.927,4.611-7.878,8.078
				c-1.951,3.468-2.925,7.136-2.925,11.004c0,3.835,0.983,7.503,2.95,11.004c1.967,3.501,4.61,6.227,7.928,8.178
				c3.317,1.951,6.877,2.926,10.679,2.926c3.834,0,7.469-0.967,10.903-2.901c3.434-1.934,6.076-4.551,7.928-7.853
				c1.85-3.301,2.775-7.019,2.775-11.153c0-6.302-2.076-11.57-6.227-15.806C236.859,237.679,231.749,235.561,225.681,235.561z"/>
			<path fill="#FFFFFF" d="M275.58,209.973h7.011v20.229h11.116v6.06h-11.116v48.422h-7.011v-48.422h-9.564v-6.06h9.564V209.973z"/>
			<path fill="#FFFFFF" d="M306.651,207.77c1.596,0,2.958,0.567,4.088,1.702s1.695,2.504,1.695,4.106
				c0,1.569-0.565,2.921-1.695,4.056s-2.492,1.702-4.088,1.702c-1.563,0-2.909-0.567-4.039-1.702s-1.694-2.486-1.694-4.056
				c0-1.603,0.564-2.972,1.694-4.106S305.089,207.77,306.651,207.77z M303.171,230.202h7.011v54.481h-7.011V230.202z"/>
			<path fill="#FFFFFF" d="M352.144,236.161l-4.507,4.657c-3.749-3.639-7.414-5.458-10.994-5.458c-2.276,0-4.227,0.751-5.85,2.253
				c-1.623,1.503-2.435,3.255-2.435,5.258c0,1.771,0.669,3.455,2.007,5.058c1.338,1.636,4.148,3.556,8.431,5.759
				c5.219,2.704,8.765,5.308,10.639,7.812c1.839,2.537,2.76,5.392,2.76,8.563c0,4.475-1.572,8.263-4.715,11.367
				c-3.144,3.104-7.072,4.657-11.785,4.657c-3.144,0-6.145-0.685-9.003-2.054c-2.858-1.368-5.224-3.255-7.096-5.658l4.406-5.007
				c3.58,4.039,7.378,6.059,11.394,6.059c2.811,0,5.202-0.901,7.177-2.704s2.962-3.922,2.962-6.359c0-2.003-0.652-3.788-1.957-5.358
				c-1.305-1.535-4.249-3.471-8.832-5.809c-4.918-2.536-8.264-5.04-10.037-7.511c-1.772-2.47-2.659-5.291-2.659-8.463
				c0-4.139,1.412-7.577,4.238-10.315c2.825-2.736,6.395-4.105,10.709-4.105C342.012,228.801,347.062,231.254,352.144,236.161z"/>
			<path fill="#FFFFFF" d="M370.672,209.973h7.011v20.229h11.116v6.06h-11.116v48.422h-7.011v-48.422h-9.564v-6.06h9.564V209.973z"
				/>
			<path fill="#FFFFFF" d="M401.743,207.77c1.596,0,2.958,0.567,4.088,1.702s1.695,2.504,1.695,4.106
				c0,1.569-0.565,2.921-1.695,4.056s-2.492,1.702-4.088,1.702c-1.563,0-2.909-0.567-4.039-1.702s-1.694-2.486-1.694-4.056
				c0-1.603,0.564-2.972,1.694-4.106S400.181,207.77,401.743,207.77z M398.263,230.202h7.011v54.481h-7.011V230.202z"/>
			<path fill="#FFFFFF" d="M472.724,241.52l-5.559,3.455c-4.802-6.376-11.354-9.564-19.656-9.564c-6.636,0-12.146,2.135-16.53,6.402
				c-4.385,4.269-6.577,9.453-6.577,15.556c0,3.968,1.009,7.703,3.025,11.204c2.018,3.501,4.786,6.219,8.304,8.152
				c3.518,1.935,7.46,2.901,11.828,2.901c8.003,0,14.538-3.188,19.606-9.564l5.559,3.655c-2.604,3.922-6.102,6.964-10.49,9.126
				c-4.391,2.161-9.39,3.243-14.998,3.243c-8.612,0-15.757-2.737-21.432-8.213c-5.676-5.475-8.513-12.134-8.513-19.979
				c0-5.274,1.327-10.173,3.98-14.696c2.654-4.523,6.301-8.054,10.941-10.591c4.64-2.537,9.831-3.806,15.573-3.806
				c3.605,0,7.086,0.551,10.44,1.652c3.355,1.102,6.201,2.537,8.538,4.306C469.101,236.529,471.088,238.782,472.724,241.52z"/>
			<path fill="#FFFFFF" d="M513.584,236.161l-4.507,4.657c-3.749-3.639-7.414-5.458-10.994-5.458c-2.276,0-4.227,0.751-5.85,2.253
				c-1.623,1.503-2.435,3.255-2.435,5.258c0,1.771,0.669,3.455,2.007,5.058c1.338,1.636,4.148,3.556,8.431,5.759
				c5.219,2.704,8.765,5.308,10.639,7.812c1.839,2.537,2.76,5.392,2.76,8.563c0,4.475-1.572,8.263-4.715,11.367
				c-3.144,3.104-7.072,4.657-11.785,4.657c-3.144,0-6.145-0.685-9.003-2.054c-2.858-1.368-5.224-3.255-7.096-5.658l4.406-5.007
				c3.58,4.039,7.378,6.059,11.394,6.059c2.811,0,5.202-0.901,7.177-2.704s2.962-3.922,2.962-6.359c0-2.003-0.652-3.788-1.957-5.358
				c-1.305-1.535-4.249-3.471-8.832-5.809c-4.918-2.536-8.264-5.04-10.037-7.511c-1.772-2.47-2.659-5.291-2.659-8.463
				c0-4.139,1.412-7.577,4.238-10.315c2.825-2.736,6.395-4.105,10.709-4.105C503.452,228.801,508.502,231.254,513.584,236.161z"/>
		</g>
	</g>
	<g>
		<circle fill="#FFFFFF" cx="311.985" cy="88.443" r="71.591"/>
		
			<line fill="none" stroke="#8B81FF" stroke-width="6.5913" stroke-linecap="round" stroke-miterlimit="10" x1="284.344" y1="126.845" x2="284.344" y2="42.869"/>
		
			<line fill="none" stroke="#8B81FF" stroke-width="6.5913" stroke-linecap="round" stroke-miterlimit="10" x1="316.998" y1="126.828" x2="316.998" y2="54.837"/>
		
			<line fill="none" stroke="#8B81FF" stroke-width="6.5913" stroke-linecap="round" stroke-miterlimit="10" x1="349.134" y1="126.828" x2="349.134" y2="72.727"/>
	</g>
</g>
</svg>
