<?xml version="1.0" encoding="utf-8"?>
<!-- Generator: Adobe Illustrator 17.0.0, SVG Export Plug-In . SVG Version: 6.00 Build 0)  -->
<!DOCTYPE svg PUBLIC "-//W3C//DTD SVG 1.1//EN" "http://www.w3.org/Graphics/SVG/1.1/DTD/svg11.dtd">
<svg version="1.1" id="Camada_1" xmlns="http://www.w3.org/2000/svg" xmlns:xlink="http://www.w3.org/1999/xlink" x="0px" y="0px"
	 width="623.969px" height="332.983px" viewBox="0 0 623.969 332.983" enable-background="new 0 0 623.969 332.983"
	 xml:space="preserve">
<g>
	<g>
		<g>
			<path fill="#FFFFFF" d="M139.909,244.224l-6.182,4.751c-3.415-4.448-7.512-7.815-12.29-10.11
				c-4.785-2.288-10.036-3.435-15.759-3.435c-6.256,0-12.054,1.498-17.386,4.502c-5.332,3.003-9.462,7.039-12.398,12.108
				c-2.929,5.062-4.394,10.765-4.394,17.089c0,9.563,3.28,17.541,9.833,23.939c6.56,6.405,14.834,9.604,24.823,9.604
				c10.987,0,20.173-4.306,27.57-12.904l6.182,4.691c-3.908,4.974-8.787,8.821-14.632,11.541c-5.851,2.72-12.384,4.083-19.599,4.083
				c-13.721,0-24.546-4.569-32.476-13.707c-6.648-7.714-9.968-17.028-9.968-27.941c0-11.48,4.029-21.138,12.081-28.98
				c8.052-7.836,18.135-11.757,30.256-11.757c7.323,0,13.937,1.451,19.835,4.346C131.311,234.937,136.143,239,139.909,244.224z"/>
			<path fill="#FFFFFF" d="M212.218,250.089v58.021h-7.356v-9.975c-3.132,3.806-6.641,6.668-10.535,8.585
				c-3.887,1.917-8.146,2.882-12.769,2.882c-8.214,0-15.226-2.976-21.037-8.936c-5.811-5.953-8.72-13.194-8.72-21.725
				c0-8.355,2.936-15.503,8.801-21.435c5.865-5.939,12.924-8.909,21.172-8.909c4.758,0,9.071,1.012,12.931,3.044
				c3.854,2.025,7.242,5.062,10.157,9.118v-10.67H212.218z M182.388,255.798c-4.157,0-7.991,1.019-11.507,3.064
				c-3.516,2.038-6.31,4.907-8.389,8.598c-2.079,3.692-3.118,7.599-3.118,11.716c0,4.083,1.046,7.991,3.145,11.723
				c2.092,3.725,4.907,6.628,8.443,8.706c3.53,2.079,7.323,3.118,11.372,3.118c4.083,0,7.95-1.033,11.608-3.091
				c3.658-2.058,6.472-4.846,8.443-8.362c1.971-3.516,2.956-7.478,2.956-11.878c0-6.709-2.214-12.324-6.634-16.832
				C194.286,258.053,188.847,255.798,182.388,255.798z"/>
			<path fill="#FFFFFF" d="M227.896,227.696h7.464v80.415h-7.464V227.696z"/>
			<path fill="#FFFFFF" d="M299.723,288.855l6.29,3.307c-2.065,4.056-4.448,7.323-7.154,9.813c-2.7,2.49-5.743,4.38-9.125,5.676
				c-3.381,1.303-7.208,1.95-11.473,1.95c-9.469,0-16.866-3.105-22.204-9.307c-5.338-6.202-8.008-13.215-8.008-21.037
				c0-7.356,2.258-13.917,6.779-19.673c5.73-7.323,13.397-10.987,23.001-10.987c9.894,0,17.79,3.752,23.696,11.251
				c4.205,5.298,6.337,11.912,6.405,19.835h-52.197c0.135,6.742,2.295,12.263,6.459,16.576c4.164,4.306,9.307,6.466,15.428,6.466
				c2.949,0,5.824-0.52,8.619-1.546s5.17-2.389,7.127-4.09C295.323,295.388,297.442,292.648,299.723,288.855z M299.723,273.231
				c-0.999-3.975-2.45-7.161-4.353-9.543c-1.903-2.382-4.421-4.299-7.552-5.757c-3.138-1.458-6.425-2.187-9.881-2.187
				c-5.696,0-10.589,1.829-14.679,5.494c-2.99,2.666-5.251,6.661-6.783,11.993H299.723z"/>
			<path fill="#FFFFFF" d="M321.853,250.089h7.464v10.4c2.983-3.982,6.29-6.958,9.914-8.929c3.624-1.977,7.572-2.963,11.838-2.963
				c4.34,0,8.187,1.107,11.548,3.307c3.354,2.207,5.838,5.17,7.437,8.902c1.6,3.739,2.396,9.55,2.396,17.44v29.865h-7.464v-27.678
				c0-6.682-0.277-11.143-0.83-13.383c-0.864-3.84-2.524-6.729-4.974-8.666c-2.457-1.937-5.656-2.909-9.604-2.909
				c-4.515,0-8.558,1.498-12.128,4.481c-3.577,2.99-5.932,6.682-7.066,11.089c-0.715,2.882-1.066,8.146-1.066,15.786v21.28h-7.464
				V250.089z"/>
			<path fill="#FFFFFF" d="M446.366,227.696v80.415h-7.363v-9.975c-3.125,3.806-6.634,6.668-10.529,8.585s-8.153,2.882-12.769,2.882
				c-8.214,0-15.226-2.976-21.037-8.936c-5.811-5.953-8.72-13.194-8.72-21.725c0-8.355,2.936-15.503,8.801-21.435
				c5.865-5.939,12.918-8.909,21.165-8.909c4.765,0,9.077,1.012,12.931,3.044c3.86,2.025,7.248,5.062,10.157,9.118v-33.064H446.366z
				 M416.529,255.798c-4.151,0-7.984,1.019-11.5,3.064c-3.516,2.038-6.317,4.907-8.389,8.598c-2.079,3.692-3.118,7.599-3.118,11.716
				c0,4.083,1.046,7.991,3.145,11.723c2.092,3.725,4.907,6.628,8.436,8.706c3.536,2.079,7.329,3.118,11.372,3.118
				c4.083,0,7.957-1.033,11.615-3.091c3.658-2.058,6.472-4.846,8.443-8.362c1.971-3.516,2.956-7.478,2.956-11.878
				c0-6.709-2.214-12.324-6.634-16.832S422.994,255.798,416.529,255.798z"/>
			<path fill="#FFFFFF" d="M512.109,288.855l6.29,3.307c-2.065,4.056-4.448,7.323-7.154,9.813c-2.7,2.49-5.743,4.38-9.125,5.676
				c-3.381,1.303-7.208,1.95-11.473,1.95c-9.469,0-16.866-3.105-22.204-9.307c-5.338-6.202-8.004-13.215-8.004-21.037
				c0-7.356,2.254-13.917,6.776-19.673c5.73-7.323,13.397-10.987,23.001-10.987c9.894,0,17.79,3.752,23.696,11.251
				c4.205,5.298,6.337,11.912,6.405,19.835h-52.197c0.135,6.742,2.295,12.263,6.459,16.576c4.164,4.306,9.307,6.466,15.428,6.466
				c2.949,0,5.824-0.52,8.619-1.546s5.17-2.389,7.127-4.09C507.708,295.388,509.827,292.648,512.109,288.855z M512.109,273.231
				c-0.999-3.975-2.45-7.161-4.353-9.543c-1.903-2.382-4.421-4.299-7.552-5.757c-3.138-1.458-6.425-2.187-9.881-2.187
				c-5.696,0-10.589,1.829-14.679,5.494c-2.99,2.666-5.251,6.661-6.783,11.993H512.109z"/>
			<path fill="#FFFFFF" d="M531.411,250.089h7.626v8.484c2.274-3.341,4.67-5.845,7.194-7.491c2.524-1.654,5.156-2.484,7.896-2.484
				c2.058,0,4.265,0.661,6.607,1.977l-3.894,6.29c-1.559-0.675-2.875-1.012-3.941-1.012c-2.49,0-4.886,1.019-7.201,3.064
				c-2.308,2.045-4.07,5.217-5.278,9.516c-0.925,3.307-1.384,9.989-1.384,20.051v19.626h-7.626V250.089z"/>
		</g>
	</g>
	<g>
		<circle fill="#FFFFFF" cx="311.984" cy="99.138" r="76.236"/>
	</g>
	<g>
		<path fill="#8B81FF" d="M336.28,59.002c1.743,0.001,3.059,0.002,3.277,0.006c0.823,0.014,1.646,0.018,2.469,0.018
			c0.997,0,1.995-0.006,2.992-0.006c0.574,0,1.147,0.002,1.721,0.008c3.062,0.032,5.247,2.473,5.248,5.882
			c0.006,22.808,0.003,45.615,0.002,68.422c0,0.49-0.012,0.977-0.128,1.461c-0.695,2.888-2.685,4.477-5.679,4.477
			c-22.822,0.004-45.643,0.002-68.464,0.004c-0.681,0-1.353-0.073-2.007-0.273c-1.996-0.611-3.128-2.164-3.734-4.278
			c0-23.766,0-47.531,0-71.297c0.052-0.132,0.109-0.262,0.157-0.396c1.012-2.802,2.605-4.003,5.333-4.007
			c1.124-0.002,2.249-0.003,3.373-0.003c1.322,0,2.644,0.001,3.965,0.003c0.027,0,0.062,0,0.103,0c0.46,0,1.767-0.001,3.411-0.003
			c-0.003,4.242-0.012,8.485,0.009,12.728c0.009,1.731,0.958,3.202,2.238,3.726c0.405,0.166,0.814,0.198,1.226,0.198
			c0.184,0,0.368-0.006,0.553-0.01c2.224-0.049,3.534-1.709,3.566-4.584c0.027-2.415,0.005-4.83,0.005-7.245h-0.007
			c0-1.607-0.004-3.214-0.005-4.821c1.453-0.002,2.611-0.003,3.096-0.003c0.102,0,0.175,0,0.214,0
			c4.32,0.012,8.639,0.018,12.959,0.018c4.371,0,8.744-0.006,13.115-0.019c0.232-0.001,1.571-0.002,3.336-0.003
			c0,1.537,0,3.074-0.001,4.611c0,1.242-0.001,2.484,0,3.727c0.001,1.242-0.016,2.485,0.006,3.726
			c0.044,2.521,1.103,4.06,3.025,4.463c0.267,0.056,0.531,0.081,0.795,0.081c0.356,0,0.711-0.046,1.067-0.123
			c1.498-0.325,2.512-1.679,2.713-3.625c0.179-1.741,0.069-3.489,0.062-5.232C336.281,64.089,336.303,61.545,336.28,59.002
			 M329.196,51.978l0,0.004l-0.578,0c-1.771,0.001-3.115,0.002-3.348,0.003c-4.368,0.013-8.734,0.019-13.098,0.019
			c-4.314,0-8.626-0.006-12.94-0.018l-0.233,0l-3.105,0.003l-0.549,0.001v0l-7.035,0.009l-3.402,0.003l-0.096,0l-3.973-0.003
			c-1.128,0-2.257,0.001-3.385,0.003c-5.665,0.008-9.893,3.061-11.909,8.598l-0.019,0.046l-0.076,0.187l-0.496,1.249v1.344v71.297
			v0.986l0.272,0.948c1.77,6.177,6.04,8.326,8.428,9.058c1.275,0.391,2.605,0.581,4.063,0.581l28.845-0.001
			c13.207,0,26.413,0,39.62-0.003c6.251-0.001,11.042-3.778,12.504-9.856c0.284-1.187,0.323-2.234,0.323-3.103l0.001-10.062
			c0.002-19.454,0.003-38.908-0.002-58.362c-0.002-7.283-5.246-12.83-12.197-12.901c-0.598-0.006-1.195-0.008-1.793-0.008
			l-1.516,0.003l-1.476,0.003c-0.783,0-1.566-0.004-2.349-0.017c-0.235-0.004-1.595-0.006-3.395-0.007l-0.638,0v-0.002l-2.045,0.001
			L329.196,51.978L329.196,51.978z"/>
	</g>
</g>
</svg>
