<?xml version="1.0" encoding="utf-8"?>
<!-- Generator: Adobe Illustrator 17.0.0, SVG Export Plug-In . SVG Version: 6.00 Build 0)  -->
<!DOCTYPE svg PUBLIC "-//W3C//DTD SVG 1.1//EN" "http://www.w3.org/Graphics/SVG/1.1/DTD/svg11.dtd">
<svg version="1.1" id="Camada_1" xmlns="http://www.w3.org/2000/svg" xmlns:xlink="http://www.w3.org/1999/xlink" x="0px" y="0px"
	 width="213.235px" height="229.412px" viewBox="0 0 213.235 229.412" enable-background="new 0 0 213.235 229.412"
	 xml:space="preserve">
<g>
	<path fill="#FAFCFC" d="M91.345,144.215c-1.677-0.064-3.363,0.16-5.033-0.175c-2.803-0.563-4.204-2.097-4.596-5.061
		c-0.276-2.086,0.942-4.032,3.211-5.183c1.088-0.552,2.204-0.737,3.44-0.726c8.658,0.08,17.318,0.092,25.977,0.118
		c4.498,0.013,8.996,0.008,13.493,0.012c1.326,0.285,2.669,0.05,4.002,0.134c0.341,0.022,0.75-0.144,0.973,0.29
		c-0.021,3.527-0.043,7.054-0.064,10.581c-11.574,0.004-23.148,0.007-34.722,0.011c-0.012-0.364-0.012-0.728-0.038-1.091
		c-0.077-1.075-0.325-1.312-1.399-1.324c-0.91-0.01-1.821-0.015-2.732-0.001C91.645,141.832,91.381,141.35,91.345,144.215z"/>
	<path fill="#38384D" d="M98.026,144.214c11.574-0.004,23.148-0.008,34.722-0.011c0.042,1.114-0.152,1.306-1.419,1.323
		c-4.1,0.056-8.2,0.13-12.301,0.147c-7.04,0.029-14.081,0.021-21.121,0.028C97.92,145.204,97.842,144.699,98.026,144.214z"/>
	<path fill="#F6BCB6" d="M98.026,144.214c-0.184,0.484-0.105,0.99-0.119,1.487c-0.019,0.794-0.053,1.589-0.053,2.383
		c0,0.596-0.262,0.645-0.654,0.32c-0.445-0.37-0.859-0.78-1.265-1.194c-1.058-1.076-1.435-1.082-2.485-0.03
		c-0.41,0.411-0.821,0.823-1.264,1.196c-0.418,0.351-0.697,0.328-0.711-0.329c-0.017-0.792,0.099-1.59-0.082-2.377
		c-0.016-0.485-0.032-0.971-0.047-1.456c0.036-2.865,0.299-2.383,2.512-2.416c0.91-0.014,1.821-0.009,2.732,0.001
		c1.074,0.012,1.322,0.248,1.399,1.324C98.014,143.486,98.014,143.851,98.026,144.214z"/>
	<path fill="#38384D" d="M132.992,82.39c0.003-1.215-0.281-1.508-1.492-1.57c-0.367-0.019-0.734-0.011-1.102-0.011
		c-11.571,0.02-23.141,0.038-34.712,0.063c-2.907,0.006-5.815,0.023-8.722,0.062c-3.854,0.051-6.095,1.951-6.545,5.554
		c-0.091,0.726-0.08,1.467-0.08,2.2c-0.004,13.683-0.003,27.366-0.004,41.05c0,0.428-0.025,0.856-0.029,1.284
		c-0.026,2.845-0.162,5.696,0.065,8.535c0.29,3.626,2.284,5.924,5.974,6.015c1.682,0.042,3.363,0.112,5.046,0.099
		c-0.016-0.485-0.032-0.97-0.047-1.456c-1.677-0.064-3.363,0.16-5.033-0.176c-2.803-0.563-4.204-2.097-4.596-5.061
		c-0.276-2.086,0.942-4.032,3.211-5.183c1.088-0.552,2.204-0.737,3.44-0.726c8.658,0.08,17.318,0.093,25.977,0.118
		c4.498,0.013,8.996,0.008,13.493,0.012c1.326,0.285,2.669,0.05,4.002,0.134c0.341,0.022,0.75-0.144,0.973,0.29
		c0.098-0.185-0.009-0.322-0.109-0.459c0.056-0.947,0.158-1.893,0.161-2.84C132.915,114.346,132.953,98.368,132.992,82.39z"/>
</g>
</svg>
