<?xml version="1.0" encoding="utf-8"?>
<!-- Generator: Adobe Illustrator 17.0.0, SVG Export Plug-In . SVG Version: 6.00 Build 0)  -->
<!DOCTYPE svg PUBLIC "-//W3C//DTD SVG 1.1//EN" "http://www.w3.org/Graphics/SVG/1.1/DTD/svg11.dtd">
<svg version="1.1" id="Camada_1" xmlns="http://www.w3.org/2000/svg" xmlns:xlink="http://www.w3.org/1999/xlink" x="0px" y="0px"
	 width="623.969px" height="332.983px" viewBox="0 0 623.969 332.983" enable-background="new 0 0 623.969 332.983"
	 xml:space="preserve">
<g>
	<g>
		<g>
			<path fill="#FFFFFF" d="M12.527,227.231h7.511v75.119h-7.511V227.231z"/>
			<path fill="#FFFFFF" d="M36.074,246.789h7.149v9.96c2.857-3.813,6.024-6.67,9.495-8.558c3.471-1.887,7.252-2.831,11.337-2.831
				c4.156,0,7.84,1.054,11.059,3.167c3.212,2.107,5.591,4.951,7.123,8.525c1.532,3.574,2.295,9.139,2.295,16.702v28.595h-7.149
				v-26.507c0-6.399-0.265-10.671-0.795-12.817c-0.827-3.678-2.417-6.438-4.764-8.293c-2.353-1.861-5.416-2.786-9.198-2.786
				c-4.324,0-8.196,1.428-11.615,4.292c-3.426,2.857-5.681,6.399-6.767,10.62c-0.685,2.76-1.021,7.795-1.021,15.118v20.373h-7.149
				V246.789z"/>
			<path fill="#FFFFFF" d="M106.08,226.158h7.155v20.631h11.337v6.179h-11.337v49.381h-7.155v-49.381h-9.753v-6.179h9.753V226.158z"
				/>
			<path fill="#FFFFFF" d="M132.587,246.789h7.304v8.118c2.178-3.199,4.473-5.591,6.89-7.174c2.417-1.584,4.938-2.372,7.562-2.372
				c1.971,0,4.085,0.627,6.328,1.887l-3.729,6.024c-1.493-0.646-2.753-0.97-3.775-0.97c-2.385,0-4.68,0.982-6.897,2.934
				c-2.211,1.958-3.897,5.003-5.054,9.12c-0.885,3.167-1.325,9.566-1.325,19.203v18.789h-7.304V246.789z"/>
			<path fill="#FFFFFF" d="M193.046,245.361c8.564,0,15.655,3.096,21.284,9.295c5.113,5.649,7.672,12.339,7.672,20.069
				c0,7.763-2.702,14.543-8.105,20.347c-5.41,5.804-12.358,8.706-20.851,8.706c-8.525,0-15.487-2.902-20.896-8.706
				c-5.403-5.804-8.105-12.584-8.105-20.347c0-7.698,2.553-14.368,7.672-20.017C177.347,248.476,184.456,245.361,193.046,245.361z
				 M193.02,252.354c-5.94,0-11.053,2.198-15.318,6.586c-4.272,4.395-6.405,9.702-6.405,15.933c0,4.02,0.97,7.763,2.922,11.24
				c1.946,3.471,4.576,6.153,7.892,8.041c3.309,1.887,6.948,2.831,10.91,2.831c3.969,0,7.601-0.944,10.917-2.831
				c3.316-1.887,5.946-4.57,7.892-8.041c1.952-3.477,2.922-7.22,2.922-11.24c0-6.231-2.139-11.537-6.431-15.933
				C204.034,254.552,198.935,252.354,193.02,252.354z"/>
			<path fill="#FFFFFF" d="M290.69,225.343v77.006h-7.052v-9.547c-2.993,3.639-6.354,6.379-10.083,8.222
				c-3.729,1.836-7.808,2.753-12.229,2.753c-7.866,0-14.582-2.85-20.147-8.551c-5.565-5.701-8.351-12.643-8.351-20.812
				c0-7.995,2.812-14.84,8.428-20.528c5.617-5.681,12.371-8.525,20.27-8.525c4.563,0,8.693,0.97,12.384,2.909
				c3.697,1.939,6.942,4.854,9.728,8.732v-31.658H290.69z M262.115,252.251c-3.975,0-7.646,0.982-11.014,2.934
				c-3.367,1.958-6.05,4.705-8.034,8.241c-1.991,3.536-2.986,7.278-2.986,11.221c0,3.91,1.002,7.653,3.012,11.221
				c2.004,3.568,4.699,6.354,8.079,8.338c3.387,1.991,7.019,2.986,10.891,2.986c3.91,0,7.62-0.989,11.124-2.96
				s6.198-4.641,8.086-8.008c1.887-3.367,2.831-7.155,2.831-11.376c0-6.425-2.12-11.796-6.354-16.113
				C273.517,254.41,268.307,252.251,262.115,252.251z"/>
			<path fill="#FFFFFF" d="M305.957,246.789h7.149v25.944c0,6.328,0.343,10.684,1.028,13.069c1.021,3.406,2.973,6.095,5.856,8.066
				c2.876,1.978,6.315,2.967,10.303,2.967s7.375-0.963,10.154-2.889c2.779-1.92,4.693-4.447,5.753-7.582
				c0.717-2.146,1.073-6.69,1.073-13.632v-25.944h7.304v27.27c0,7.659-0.892,13.431-2.682,17.309
				c-1.784,3.885-4.479,6.922-8.066,9.12c-3.594,2.191-8.099,3.29-13.509,3.29s-9.934-1.099-13.56-3.29
				c-3.626-2.198-6.328-5.261-8.118-9.198c-1.784-3.93-2.682-9.844-2.682-17.742V246.789z"/>
			<path fill="#FFFFFF" d="M424.388,258.327l-5.668,3.529c-4.899-6.502-11.583-9.753-20.05-9.753
				c-6.767,0-12.384,2.172-16.857,6.528c-4.473,4.35-6.703,9.637-6.703,15.861c0,4.046,1.028,7.86,3.083,11.427
				c2.055,3.568,4.88,6.341,8.467,8.312c3.587,1.971,7.608,2.96,12.061,2.96c8.163,0,14.827-3.251,19.998-9.753l5.668,3.729
				c-2.656,3.994-6.224,7.097-10.697,9.307c-4.479,2.204-9.579,3.303-15.299,3.303c-8.784,0-16.068-2.792-21.853-8.377
				c-5.791-5.578-8.68-12.371-8.68-20.373c0-5.378,1.351-10.374,4.059-14.989c2.702-4.608,6.425-8.215,11.156-10.801
				s10.025-3.878,15.881-3.878c3.678,0,7.226,0.562,10.652,1.681c3.419,1.125,6.321,2.592,8.706,4.395
				C420.691,253.24,422.72,255.541,424.388,258.327z"/>
			<path fill="#FFFFFF" d="M444.347,226.158h7.155v20.631h11.337v6.179h-11.337v49.381h-7.155v-49.381h-9.753v-6.179h9.753V226.158z
				"/>
			<path fill="#FFFFFF" d="M476.038,223.908c1.622,0,3.012,0.582,4.169,1.739c1.15,1.157,1.726,2.553,1.726,4.188
				c0,1.596-0.575,2.98-1.726,4.137c-1.157,1.157-2.547,1.732-4.169,1.732c-1.596,0-2.967-0.575-4.124-1.732
				c-1.151-1.157-1.726-2.54-1.726-4.137c0-1.635,0.575-3.031,1.726-4.188C473.071,224.49,474.441,223.908,476.038,223.908z
				 M472.489,246.789h7.149v55.56h-7.149V246.789z"/>
			<path fill="#FFFFFF" d="M520.797,245.361c8.564,0,15.655,3.096,21.284,9.295c5.113,5.649,7.672,12.339,7.672,20.069
				c0,7.763-2.702,14.543-8.105,20.347c-5.41,5.804-12.358,8.706-20.851,8.706c-8.525,0-15.487-2.902-20.896-8.706
				c-5.404-5.804-8.105-12.584-8.105-20.347c0-7.698,2.553-14.368,7.672-20.017C505.098,248.476,512.207,245.361,520.797,245.361z
				 M520.772,252.354c-5.94,0-11.053,2.198-15.319,6.586c-4.272,4.395-6.405,9.702-6.405,15.933c0,4.02,0.97,7.763,2.921,11.24
				c1.946,3.471,4.576,6.153,7.892,8.041c3.309,1.887,6.948,2.831,10.91,2.831c3.969,0,7.601-0.944,10.917-2.831
				c3.316-1.887,5.946-4.57,7.892-8.041c1.952-3.477,2.922-7.22,2.922-11.24c0-6.231-2.139-11.537-6.431-15.933
				C531.785,254.552,526.686,252.354,520.772,252.354z"/>
			<path fill="#FFFFFF" d="M562.985,246.789h7.149v9.96c2.857-3.813,6.024-6.67,9.495-8.558c3.471-1.887,7.252-2.831,11.337-2.831
				c4.156,0,7.84,1.054,11.059,3.167c3.212,2.107,5.591,4.951,7.123,8.525c1.532,3.574,2.295,9.139,2.295,16.702v28.595h-7.149
				v-26.507c0-6.399-0.265-10.671-0.795-12.817c-0.827-3.678-2.417-6.438-4.764-8.293c-2.353-1.861-5.416-2.786-9.198-2.786
				c-4.324,0-8.196,1.428-11.615,4.292c-3.426,2.857-5.681,6.399-6.767,10.62c-0.685,2.76-1.021,7.795-1.021,15.118v20.373h-7.149
				V246.789z"/>
		</g>
	</g>
	<g>
		<circle fill="#FFFFFF" cx="311.628" cy="102.216" r="73.01"/>
	</g>
	<g>
		<path fill="#8B81FF" d="M311.713,106.291c3.83,3.73,7.644,7.561,11.352,11.286c1.632,1.639,3.301,3.316,4.978,4.991
			c-3.883,3.894-11.471,11.513-16.33,16.463c-4.856-4.947-12.446-12.568-16.33-16.463c1.677-1.674,3.346-3.352,4.979-4.992
			C304.07,113.851,307.883,110.021,311.713,106.291 M311.713,98.104c-0.797,0.002-1.597,0.382-2.375,1.129
			c-7.173,6.889-14.103,14.022-21.164,21.022c-1.569,1.555-1.567,3.041-0.018,4.591c1.849,1.85,16.078,16.105,21.263,21.461
			c0.59,0.609,1.436,0.83,2.259,0.83c0.012,0,0.024,0,0.036,0c0.012,0,0.024,0,0.036,0c0.822,0,1.669-0.221,2.259-0.83
			c5.185-5.356,19.414-19.611,21.263-21.461c1.549-1.55,1.551-3.035-0.018-4.591c-7.062-7-13.991-14.133-21.164-21.022
			C313.311,98.486,312.51,98.106,311.713,98.104L311.713,98.104z"/>
	</g>
	<g>
		<path fill="#8B81FF" d="M340.587,77.674c3.831,3.73,7.644,7.561,11.353,11.287c1.632,1.639,3.301,3.316,4.977,4.99
			c-3.885,3.895-11.475,11.518-16.33,16.463c-4.858-4.949-12.447-12.569-16.33-16.463c1.677-1.674,3.346-3.352,4.979-4.991
			C332.944,85.234,336.757,81.403,340.587,77.674 M340.587,69.486c-0.797,0.002-1.597,0.382-2.375,1.129
			c-7.173,6.889-14.103,14.022-21.164,21.022c-1.569,1.555-1.567,3.041-0.018,4.591c1.849,1.85,16.078,16.105,21.263,21.461
			c0.59,0.609,1.436,0.83,2.259,0.83c0.012,0,0.024,0,0.036,0c0.012,0,0.024,0,0.036,0c0.822,0,1.669-0.221,2.259-0.83
			c5.185-5.356,19.414-19.611,21.263-21.461c1.549-1.55,1.551-3.035-0.018-4.591c-7.062-7-13.992-14.133-21.164-21.022
			C342.185,69.868,341.384,69.488,340.587,69.486L340.587,69.486z"/>
	</g>
	<g>
		<path fill="#8B81FF" d="M282.669,77.674c3.83,3.73,7.644,7.561,11.352,11.286c1.632,1.64,3.302,3.316,4.978,4.991
			c-3.884,3.894-11.472,11.514-16.33,16.463c-4.86-4.95-12.447-12.569-16.33-16.463c1.677-1.674,3.346-3.352,4.979-4.992
			C275.025,85.234,278.838,81.403,282.669,77.674 M282.669,69.486c-0.797,0.002-1.597,0.382-2.375,1.129
			c-7.173,6.889-14.103,14.022-21.164,21.022c-1.569,1.555-1.567,3.041-0.018,4.591c1.849,1.85,16.078,16.105,21.263,21.461
			c0.59,0.609,1.436,0.83,2.259,0.83c0.012,0,0.024,0,0.036,0c0.012,0,0.024,0,0.036,0c0.822,0,1.669-0.221,2.259-0.83
			c5.185-5.356,19.414-19.611,21.263-21.461c1.549-1.55,1.551-3.035-0.018-4.591c-7.062-7-13.991-14.133-21.164-21.022
			C284.266,69.868,283.466,69.488,282.669,69.486L282.669,69.486z"/>
	</g>
</g>
</svg>
