<?xml version="1.0" encoding="utf-8"?>
<!-- Generator: Adobe Illustrator 17.0.0, SVG Export Plug-In . SVG Version: 6.00 Build 0)  -->
<!DOCTYPE svg PUBLIC "-//W3C//DTD SVG 1.1//EN" "http://www.w3.org/Graphics/SVG/1.1/DTD/svg11.dtd">
<svg version="1.1" id="Camada_1" xmlns="http://www.w3.org/2000/svg" xmlns:xlink="http://www.w3.org/1999/xlink" x="0px" y="0px"
	 width="213.235px" height="229.412px" viewBox="0 0 213.235 229.412" enable-background="new 0 0 213.235 229.412"
	 xml:space="preserve">
<g>
	<g>
		<g>
			<path fill="#FFFFFF" d="M94.183,86.423c-3.004,0.066-5.581-1.556-8.585-1.49c-3.396,0.058-6.431,1.559-9.083,3.46
				c-0.533,0.511-4.349,1.865-4.351,1.995c-0.542,0.902,2.273,3.574,2.778,4.368c1.127,2.244,0.476,5.245,2.195,7.228
				c0.769,0.888,3.682-1.226,5.384-1.451c1.572-0.227,3.01-0.327,4.579-0.424c3.138-0.194,7.906-3.355,10.471-1.211
				c-0.083-2.221-3.564-4.254-4.03-6.876C93.308,90.713,93.894,87.723,94.183,86.423"/>
		</g>
		<path fill="#FDB7A9" d="M147.54,132.151c-0.328,0.587-1.093,0.357-1.417,0.095c-1.318-1.068-3.478-0.139-4.481-1.965
			c-0.059-0.107-0.204-0.19-0.383-0.248c0.273-1.19-0.109-2.374-0.692-3.389c1.742,1.912,4.249,2.83,6.184,4.487
			C147.103,131.431,147.968,131.386,147.54,132.151z"/>
		<path fill="#38384D" d="M117.28,117.031c0.049-0.054,0.099-0.107,0.148-0.161C117.379,116.924,117.33,116.977,117.28,117.031
			L117.28,117.031z"/>
		<path fill="#FFFFFF" d="M133.74,119.56c-0.713-0.558-9.233-8.049-10.986-9.482c-2.586-2.115-5.289-4.081-8.048-5.966
			c-0.259-0.177-0.554-0.302-0.832-0.452c-1.224,1.914-2.923,3.25-4.816,4.373c1.991,4.338,4.189,8.575,6.481,12.762
			c2.608,1.81,5.552,3.067,8.494,4.309c5.696,2.405,17.965,5.843,18.345,5.961c0.485-0.593,1.551-0.961,1.439-1.873
			C140.457,125.981,137.399,122.423,133.74,119.56z"/>
	</g>
	<path fill="#FDB7A9" d="M102.273,140.86c0.498,1.392-1.03,3.599-2.539,3.62c-0.565,0.008-0.681-0.659-0.266-1.145
		c0.448-0.525,0.491-1.234,0.126-1.983c0.436-0.379,0.871-0.758,1.307-1.137C101.292,140.614,102.103,140.386,102.273,140.86z"/>
	<path fill="#FFFFFF" d="M99.452,141.52c-2.409-1.881-4.548-4.06-6.778-6.14c-1.829-1.707-2.35-3.688-1.34-6.021
		c0.489-1.129,5.115-9.585,5.966-10.262c3.269-4.184,5.161-6.792,12.084-9.057c6.269-1.662,12.538-1.946,18.813-0.022
		c3.098,0.95,6.231,1.804,9.016,3.548c-0.485,0.462-1.104,0.678-1.704,0.928c-2.841,0.83-5.666,1.725-8.528,2.476
		c-5.931,1.556-11.908,2.95-18.061,3.195c-1.674,0.067-2.494,0.517-3.407,2.071c-0.572,0.973-5.664,8.184-6.325,10.008
		c-0.194,0.535-0.3,1.085,0.088,1.55c1.785,2.142,1.8,4.737,1.816,7.298c0.003,0.514-0.874,0.828-1.398,0.596
		C99.605,141.649,99.529,141.58,99.452,141.52z"/>
	<path fill="#FFEED6" d="M85.251,89.754c1.841-1.22,3.671-2.471,5.711-3.104c0.473-0.147,0.946-0.283,1.42-0.425
		c2.497-0.745,4.162,0.033,5.392,1.759c1.988,2.788,3.371,5.895,3.468,9.727c0.012,0.488,0.249,0.816,0.544,1.115
		c1.375,1.392,2.969,2.528,4.584,3.642c0.152,0.104,0.292,0.224,0.437,0.336c-0.308,1.075-0.88,2.059-1.627,2.976
		c-1.07,1.314-2.223,2.547-3.486,3.691c-1.472,1.332-3.002,2.501-4.811,3.094c-0.951-1.382-1.7-2.942-3.143-3.889
		c-0.385-0.253-4.242-1.77-5.479-2.062c-1.867-0.826-3.708-1.69-5.319-2.886c-0.719-0.533-1.439-1.071-2.087-1.682
		c-0.684-0.644-0.7-1.639-0.531-2.658c0.408-2.465,1.338-4.845,2.897-7.104c0.312-0.452,0.623-0.906,0.934-1.359
		c0.445-0.002,0.398,0.298,0.274,0.642c-0.222,0.618-0.481,1.234-0.662,1.854c-0.276,0.946,0.019,3.942,0.365,4.394
		c0.883,1.155,2.119,1.87,3.575,2.265c1.82,0.494,2.411,0.172,3.5-1.815c0.322-0.326,0.643-0.653,0.965-0.979
		c0.362-0.293,0.705-0.628,1.089-0.871c0.622-0.393,0.853-0.937,0.971-1.531c0.413-2.071-1.03-5.012-2.793-5.725
		c-0.795-0.291-1.664-0.338-2.596-0.196c-1.093,0.166-2.148,0.614-3.185,1.172C85.088,90.443,84.98,90.31,85.251,89.754z"/>
	<path fill="#38384D" d="M91.942,90.913c-0.011-0.347-0.079-0.682-0.186-1.012c-0.414-1.28-1.451-1.856-2.622-1.506
		c-0.455,0.136-0.824,0.574-1.357,0.39c-0.509-0.175-0.632-0.793-0.973-1.183c-0.76-0.872-1.928-1.016-2.524-0.23
		c-0.289,0.381-0.532,0.404-1.008,0.164c-1.003-0.506-1.495-0.44-2.009,0.148c-0.512,0.586-0.544,1.214,0.137,2.102
		c0.581,0.758,0.553,1.208-0.114,1.622c-0.259,0.161-0.482,0.408-0.349,0.818c0.141,0.438,0.514,0.564,0.875,0.687
		c0.972,0.333,0.978,0.33,0.731,1.218c-0.073,0.263-0.068,0.497,0.162,0.745c0.248,0.267,0.51,0.322,0.811,0.259
		c0.238-0.05,0.518-0.223,0.728,0.101c0.188,0.291-0.106,0.45-0.194,0.674c-0.078,0.198-0.131,0.584-0.054,0.926
		c0.055,0.243,0.593,0.804,0.82,0.918C87.378,99.037,92.16,97.529,91.942,90.913z"/>
	<path fill="#FDB7A9" d="M88.391,92.899c-0.537,0.139-1.079,0.273-1.629,0.354c-0.202,0.03-0.395,0.023-0.585,0.006
		c-0.702,2.366,1.093,3.647,3.433,3.909c0.684,0.076,1.308,0.135,1.754,0.717c0.425-0.446,0.851-0.891,1.277-1.337
		c-0.406-0.397-0.588-0.855-0.684-1.442c-0.198-1.22-0.892-2.36-1.797-3C89.621,92.467,89.021,92.735,88.391,92.899z"/>
	<path fill="#38384D" d="M89.005,94.472c-0.805,0.822-0.637,2.292,0.375,3.284s2.486,1.129,3.291,0.308
		c0.805-0.822,0.637-2.292-0.375-3.284C91.284,93.788,89.81,93.65,89.005,94.472z M90.922,95.196
		c0.264,0.433-0.041,0.895-0.391,1.027c-0.409,0.153-0.883,0.044-1.274-0.488c-0.29-0.394-0.015-0.904,0.399-1.055
		C90.097,94.519,90.623,94.706,90.922,95.196z"/>
	<g>
		<path fill="#8B81FF" d="M112.814,92.637c-8.852,2.966-8.77,8.535-15.454,13.348c-5.722,3.922-13.648,4.378-17.313,10.664
			c-3.467,5.965,11.003,7.297,15.477,9.763c4.757,2.342,8.871,7.068,14.504,8.323s5.449-1.467,7.818-5.313
			c2.06-3.01,5.291-4.9,8.892-6.72c5.869-2.819,10.726-3.325,11.383-8.752c0.495-3.488,0.287-5.498-3.3-6.72
			c-4.042-1.489-7.198-1.733-10.278-4.113c-3.622-2.841-9.205-5.52-11.126-9.111"/>
	</g>
</g>
</svg>
